<svg width="84" height="63" viewBox="0 0 84 63" fill="none" xmlns="http://www.w3.org/2000/svg">
<g clip-path="url(#clip0_458_749)">
<path d="M83.4017 7.7417H68.0383C67.7079 7.7417 67.4399 8.00551 67.4399 8.33094C67.4399 8.65637 67.7079 8.92018 68.0383 8.92018H83.4017C83.7322 8.92018 84.0001 8.65637 84.0001 8.33094C84.0001 8.00551 83.7322 7.7417 83.4017 7.7417Z" fill="#414141"/>
<path d="M58.1439 7.7417H49.2615C48.931 7.7417 48.6631 8.00551 48.6631 8.33094V8.35656C48.6631 8.68198 48.931 8.9458 49.2615 8.9458H58.1439C58.4743 8.9458 58.7423 8.68198 58.7423 8.35656V8.33094C58.7423 8.00551 58.4743 7.7417 58.1439 7.7417Z" fill="#414141"/>
<path d="M63.9901 7.7417H60.47C60.1395 7.7417 59.8716 8.00551 59.8716 8.33094C59.8716 8.65637 60.1395 8.92018 60.47 8.92018H63.9901C64.3206 8.92018 64.5885 8.65637 64.5885 8.33094C64.5885 8.00551 64.3206 7.7417 63.9901 7.7417Z" fill="#414141"/>
<path d="M65.4417 61.5342H6.47836C6.0947 61.5342 5.78369 61.8404 5.78369 62.2182C5.78369 62.596 6.0947 62.9022 6.47836 62.9022H65.4417C65.8254 62.9022 66.1364 62.596 66.1364 62.2182C66.1364 61.8404 65.8254 61.5342 65.4417 61.5342Z" fill="#414141" stroke="#414141" stroke-width="0.75" stroke-miterlimit="10"/>
<path d="M0.520508 43.2959H67.2059V50.19C67.2055 50.6035 67.1224 51.0128 66.9611 51.3945C66.7999 51.7763 66.5638 52.123 66.2663 52.4147C65.9688 52.7065 65.6157 52.9376 65.2274 53.0948C64.839 53.252 64.423 53.3323 64.0031 53.3309H3.72326C3.30338 53.3323 2.88735 53.252 2.49901 53.0948C2.11066 52.9376 1.75763 52.7065 1.46012 52.4147C1.16262 52.123 0.926484 51.7763 0.76525 51.3945C0.604016 51.0128 0.520848 50.6035 0.520508 50.19V43.2959Z" fill="#FFE031" stroke="#414141" stroke-width="2" stroke-miterlimit="10"/>
<path d="M13.1102 62.2183C15.984 62.2183 18.3137 59.9243 18.3137 57.0945C18.3137 54.2647 15.984 51.9707 13.1102 51.9707C10.2364 51.9707 7.90674 54.2647 7.90674 57.0945C7.90674 59.9243 10.2364 62.2183 13.1102 62.2183Z" fill="#F2F2F2" stroke="#414141" stroke-width="2" stroke-miterlimit="10"/>
<path d="M54.889 62.2183C57.7629 62.2183 60.0925 59.9243 60.0925 57.0945C60.0925 54.2647 57.7629 51.9707 54.889 51.9707C52.0152 51.9707 49.6855 54.2647 49.6855 57.0945C49.6855 59.9243 52.0152 62.2183 54.889 62.2183Z" fill="#F2F2F2" stroke="#414141" stroke-width="2" stroke-miterlimit="10"/>
<path d="M42.85 5.49746L42.865 6.22935L43.5672 6.43624C57.7084 10.6027 67.5463 24.0784 66.5386 38.939L34.489 35.8318L34.4889 35.8318L2.44302 32.7227C4.51017 17.1516 18.0957 5.40662 33.8406 5.12416L34.5666 5.11113L34.7789 4.41672C35.0601 3.49712 35.6666 2.70288 36.4935 2.17977C37.3206 1.65643 38.3124 1.44007 39.2896 1.5719C40.2667 1.70371 41.1609 2.17435 41.8125 2.89508C42.4638 3.61546 42.8304 4.53847 42.85 5.49746Z" fill="#FFE031" stroke="#414141" stroke-width="2" stroke-miterlimit="10"/>
<path d="M77.6002 42.0952H71.1869C70.8075 42.0952 70.5 42.398 70.5 42.7716C70.5 43.1451 70.8075 43.4479 71.1869 43.4479H77.6002C77.9795 43.4479 78.287 43.1451 78.287 42.7716C78.287 42.398 77.9795 42.0952 77.6002 42.0952Z" fill="#414141"/>
<path d="M80.6254 61.2969H70.1246C69.5035 61.2969 69 61.7928 69 62.4046C69 63.0165 69.5035 63.5124 70.1246 63.5124H80.6254C81.2465 63.5124 81.75 63.0165 81.75 62.4046C81.75 61.7928 81.2465 61.2969 80.6254 61.2969Z" fill="#414141"/>
<path d="M44.25 10.7085C49 11.9394 59.175 17.8721 61.875 31.7562" stroke="#414141" stroke-width="2" stroke-linecap="round"/>
</g>
<defs>
<clipPath id="clip0_458_749">
<rect width="84" height="63" fill="white"/>
</clipPath>
</defs>
</svg>
