<svg width="64" height="59" viewBox="0 0 64 59" fill="none" xmlns="http://www.w3.org/2000/svg">
<g clip-path="url(#clip0_459_944)">
<path d="M59.1616 45.1369L62.0327 45.5792C63.0046 44.4194 63.6745 43.0432 63.9844 41.5703C61.885 43.2642 58.6924 42.364 56.1467 43.2888C55.355 43.5832 54.6406 44.0495 54.0566 44.653C53.4725 45.2565 53.0337 45.9819 52.7728 46.7753L51.3696 48.2632C52.6397 48.7588 54.0038 48.9772 55.3677 48.9031C56.7317 48.8291 58.0632 48.4645 59.2704 47.8345C59.9441 47.4744 60.5691 47.0322 61.1307 46.5181C60.1261 45.8946 59.1616 45.1369 59.1616 45.1369Z" fill="#F2F2F2"/>
<path d="M58.1426 40.6106L60.9125 39.7444C61.2575 38.2791 61.2345 36.7529 60.8454 35.2983C59.7328 37.7373 56.468 38.335 54.6079 40.2818C54.0325 40.8933 53.6041 41.6246 53.3544 42.4216C53.1047 43.2185 53.0402 44.0606 53.1656 44.8854L52.583 46.834C53.9441 46.7193 55.2637 46.3151 56.451 45.6493C57.6383 44.9834 58.6651 44.0718 59.4606 42.9772C59.9006 42.3588 60.26 41.6882 60.53 40.9813C59.3488 40.8648 58.1426 40.6106 58.1426 40.6106Z" fill="#F2F2F2"/>
<path d="M64 49.1643C64.0001 49.1789 63.9972 49.1934 63.9915 49.2069C63.9859 49.2204 63.9776 49.2327 63.9671 49.243C63.9566 49.2533 63.9442 49.2615 63.9305 49.2671C63.9168 49.2726 63.9021 49.2755 63.8873 49.2754H0.112718C0.0828234 49.2754 0.0541528 49.2637 0.0330141 49.2429C0.0118754 49.2221 0 49.1938 0 49.1643C0 49.1349 0.0118754 49.1066 0.0330141 49.0858C0.0541528 49.0649 0.0828234 49.0532 0.112718 49.0532H63.8873C63.9021 49.0532 63.9168 49.056 63.9305 49.0616C63.9442 49.0672 63.9566 49.0753 63.9671 49.0857C63.9776 49.096 63.9859 49.1083 63.9915 49.1218C63.9972 49.1353 64.0001 49.1497 64 49.1643Z" fill="#CCCCCC"/>
<path d="M26.427 44.428C37.6742 44.428 46.7919 35.4411 46.7919 24.3551C46.7919 13.2692 37.6742 4.28223 26.427 4.28223C15.1797 4.28223 6.06201 13.2692 6.06201 24.3551C6.06201 35.4411 15.1797 44.428 26.427 44.428Z" fill="#A7A7A7"/>
<path d="M43.95 24.355C43.9521 27.0501 43.3133 29.7081 42.0851 32.116C40.8568 34.5238 39.0732 36.6145 36.8772 38.2202C36.7304 38.3286 36.5807 38.434 36.4301 38.5367C33.4936 40.5487 30.0029 41.627 26.4267 41.627C22.8504 41.627 19.3597 40.5487 16.4232 38.5367C16.2726 38.434 16.1229 38.3286 15.9761 38.2202C13.7817 36.6131 11.9991 34.5221 10.771 32.1146C9.54294 29.7071 8.90332 27.0497 8.90332 24.355C8.90332 21.6603 9.54294 19.003 10.771 16.5954C11.9991 14.1879 13.7817 12.097 15.9761 10.4898C16.1229 10.3815 16.2726 10.276 16.4232 10.1733C19.3597 8.16136 22.8504 7.08301 26.4267 7.08301C30.0029 7.08301 33.4936 8.16136 36.4301 10.1733C36.5807 10.276 36.7304 10.3815 36.8772 10.4898C39.0732 12.0956 40.8568 14.1862 42.0851 16.5941C43.3133 19.0019 43.9521 21.6599 43.95 24.355Z" fill="white"/>
<path d="M26.4268 40.1331C35.2676 40.1331 42.4346 33.069 42.4346 24.3549C42.4346 15.6408 35.2676 8.57666 26.4268 8.57666C17.5859 8.57666 10.4189 15.6408 10.4189 24.3549C10.4189 33.069 17.5859 40.1331 26.4268 40.1331Z" fill="#FFE031"/>
<path opacity="0.2" d="M26.4686 8.62109C26.226 8.62109 25.9848 8.62735 25.7448 8.63788C29.7906 8.98831 33.5501 10.8415 36.2615 13.822C38.9729 16.8026 40.4334 20.6875 40.3473 24.6899C40.2611 28.6922 38.6346 32.5126 35.7973 35.377C32.9601 38.2414 29.1242 39.9357 25.0669 40.1166C25.5289 40.1562 25.9962 40.1775 26.4686 40.1775C30.7142 40.1775 34.7858 38.5152 37.7879 35.5562C40.7899 32.5972 42.4765 28.584 42.4765 24.3993C42.4765 20.2147 40.7899 16.2014 37.7879 13.2424C34.7858 10.2834 30.7142 8.6211 26.4686 8.6211V8.62109Z" fill="black"/>
<path d="M26.4741 7.45654C26.336 7.45678 26.2036 7.51096 26.106 7.60721C26.0083 7.70345 25.9534 7.83392 25.9531 7.97004V10.2107C25.9531 10.3469 26.008 10.4775 26.1057 10.5738C26.2034 10.6701 26.3359 10.7242 26.4741 10.7242C26.6123 10.7242 26.7448 10.6701 26.8425 10.5738C26.9402 10.4775 26.9951 10.3469 26.9951 10.2107V7.97004C26.9948 7.83392 26.9398 7.70345 26.8422 7.60721C26.7445 7.51096 26.6122 7.45678 26.4741 7.45654Z" fill="white"/>
<path d="M36.8774 10.4899C36.7306 10.3816 36.5809 10.2761 36.4303 10.1735C36.34 10.1676 36.2496 10.1852 36.1682 10.2243C36.0868 10.2634 36.0172 10.3228 35.9662 10.3966L34.6865 12.248C34.6088 12.3605 34.5796 12.4989 34.6053 12.6326C34.6311 12.7664 34.7097 12.8846 34.8239 12.9612C34.9381 13.0379 35.0784 13.0667 35.2142 13.0413C35.3499 13.0159 35.4698 12.9384 35.5475 12.8259L36.8272 10.9745C36.8759 10.9043 36.906 10.8231 36.9148 10.7385C36.9235 10.6539 36.9107 10.5684 36.8774 10.4899Z" fill="white"/>
<path d="M42.6912 18.9316C42.6655 18.8692 42.6275 18.8124 42.5795 18.7644C42.5315 18.7165 42.4744 18.6783 42.4114 18.6521C42.3484 18.6259 42.2808 18.6122 42.2125 18.6118C42.1441 18.6114 42.0763 18.6243 42.013 18.6497L39.9064 19.4927C39.7786 19.5441 39.6766 19.6433 39.623 19.7687C39.5693 19.8941 39.5684 20.0354 39.6203 20.1615C39.6723 20.2876 39.7729 20.3882 39.9001 20.4412C40.0273 20.4941 40.1706 20.4952 40.2986 20.4441L42.4052 19.601C42.533 19.5494 42.6348 19.45 42.6884 19.3246C42.7421 19.1991 42.7431 19.0578 42.6912 18.9316Z" fill="white"/>
<path d="M18.1674 12.248L16.8878 10.3966C16.8368 10.3228 16.7671 10.2634 16.6857 10.2243C16.6044 10.1852 16.514 10.1676 16.4236 10.1735C16.273 10.2761 16.1234 10.3816 15.9766 10.4899C15.9433 10.5684 15.9304 10.6539 15.9392 10.7385C15.948 10.8231 15.9781 10.9043 16.0268 10.9745L17.3064 12.8259C17.3842 12.9384 17.5041 13.0159 17.6398 13.0413C17.7755 13.0667 17.9159 13.0379 18.0301 12.9612C18.1443 12.8846 18.2229 12.7664 18.2486 12.6326C18.2744 12.4989 18.2452 12.3605 18.1674 12.248Z" fill="white"/>
<path d="M12.947 19.4926L10.8404 18.6495C10.7124 18.5983 10.5691 18.5993 10.4418 18.6523C10.3145 18.7052 10.2138 18.8059 10.1618 18.932C10.1098 19.0581 10.1108 19.1995 10.1645 19.3249C10.2182 19.4504 10.3203 19.5496 10.4483 19.6009L12.5549 20.444C12.6828 20.4951 12.8262 20.494 12.9533 20.441C13.0805 20.388 13.1811 20.2874 13.2331 20.1614C13.2851 20.0353 13.2841 19.894 13.2305 19.7686C13.1769 19.6432 13.0749 19.5439 12.947 19.4926V19.4926Z" fill="white"/>
<path d="M26.4741 37.9858C26.336 37.9861 26.2036 38.0403 26.106 38.1365C26.0083 38.2327 25.9534 38.3632 25.9531 38.4993V40.74C25.9531 40.8762 26.008 41.0068 26.1057 41.1031C26.2034 41.1994 26.3359 41.2535 26.4741 41.2535C26.6123 41.2535 26.7448 41.1994 26.8425 41.1031C26.9402 41.0068 26.9951 40.8762 26.9951 40.74V38.4993C26.9948 38.3632 26.9398 38.2327 26.8422 38.1365C26.7445 38.0403 26.6122 37.9861 26.4741 37.9858Z" fill="white"/>
<path d="M36.8272 37.736L35.5475 35.8846C35.509 35.8289 35.4598 35.7811 35.4026 35.7442C35.3454 35.7072 35.2814 35.6817 35.2142 35.6692C35.147 35.6566 35.0779 35.6572 35.0109 35.6709C34.944 35.6847 34.8804 35.7113 34.8239 35.7492C34.7673 35.7871 34.7189 35.8357 34.6814 35.8921C34.6439 35.9485 34.6181 36.0116 34.6053 36.0778C34.5926 36.144 34.5932 36.2121 34.6071 36.2781C34.621 36.3441 34.648 36.4068 34.6865 36.4625L35.9662 38.3139C36.0172 38.3876 36.0868 38.447 36.1682 38.4861C36.2496 38.5253 36.34 38.5428 36.4303 38.537C36.581 38.4343 36.7306 38.3288 36.8774 38.2205C36.9107 38.142 36.9236 38.0566 36.9148 37.9719C36.906 37.8873 36.8759 37.8062 36.8272 37.736Z" fill="white"/>
<path d="M42.4055 29.1088L40.2989 28.2658C40.1709 28.2145 40.0275 28.2155 39.9003 28.2685C39.773 28.3214 39.6723 28.4221 39.6203 28.5482C39.5683 28.6743 39.5693 28.8157 39.623 28.9411C39.6767 29.0666 39.7788 29.1658 39.9068 29.2171L42.0134 30.0602C42.1413 30.1113 42.2847 30.1102 42.4118 30.0572C42.539 30.0042 42.6396 29.9036 42.6916 29.7776C42.7436 29.6515 42.7426 29.5102 42.689 29.3848C42.6353 29.2594 42.5334 29.1601 42.4055 29.1088V29.1088Z" fill="white"/>
<path d="M18.0301 35.7492C17.9159 35.6725 17.7755 35.6438 17.6398 35.6692C17.5041 35.6946 17.3842 35.772 17.3064 35.8845L16.0268 37.7359C15.9781 37.8061 15.948 37.8873 15.9392 37.9719C15.9304 38.0565 15.9433 38.142 15.9766 38.2204C16.1234 38.3287 16.273 38.4343 16.4236 38.5369C16.514 38.5428 16.6044 38.5252 16.6857 38.4861C16.7671 38.447 16.8368 38.3876 16.8878 38.3138L18.1674 36.4624C18.206 36.4067 18.2329 36.3441 18.2469 36.2781C18.2608 36.2121 18.2614 36.144 18.2487 36.0778C18.2359 36.0115 18.21 35.9484 18.1725 35.892C18.135 35.8356 18.0866 35.7871 18.0301 35.7492Z" fill="white"/>
<path d="M13.2332 28.5478C13.2075 28.4854 13.1695 28.4286 13.1215 28.3806C13.0735 28.3327 13.0164 28.2945 12.9534 28.2683C12.8904 28.2422 12.8228 28.2285 12.7545 28.228C12.6861 28.2276 12.6183 28.2405 12.555 28.2659L10.4484 29.1089C10.3206 29.1603 10.2186 29.2596 10.1649 29.385C10.1113 29.5104 10.1104 29.6516 10.1623 29.7777C10.2143 29.9038 10.3149 30.0044 10.4421 30.0574C10.5693 30.1104 10.7126 30.1114 10.8406 30.0603L12.9472 29.2172C13.075 29.1656 13.1768 29.0662 13.2304 28.9408C13.2841 28.8153 13.2851 28.674 13.2332 28.5478Z" fill="white"/>
<path d="M27.1504 24.1005C27.1985 24.3812 27.1317 24.6692 26.9646 24.9014C26.7976 25.1335 26.5439 25.2909 26.2592 25.339L17.0146 26.8889C16.8736 26.9126 16.7292 26.9086 16.5898 26.8772C16.4503 26.8459 16.3185 26.7878 16.2018 26.7062C16.0851 26.6246 15.9859 26.5212 15.9097 26.4018C15.8336 26.2825 15.7821 26.1495 15.7581 26.0105C15.7341 25.8715 15.7381 25.7292 15.7699 25.5917C15.8017 25.4543 15.8607 25.3243 15.9435 25.2093C16.0262 25.0943 16.1311 24.9965 16.2523 24.9215C16.3734 24.8464 16.5083 24.7956 16.6493 24.772L25.8939 23.2221C26.1786 23.1746 26.4709 23.2405 26.7064 23.4052C26.942 23.5699 27.1017 23.8199 27.1504 24.1005Z" fill="#414141"/>
<path d="M36.8798 34.1954C36.747 34.3271 36.5666 34.4014 36.3783 34.4021C36.1899 34.4029 36.009 34.3299 35.8751 34.1993L25.9235 24.4673C25.7899 24.3365 25.7145 24.1588 25.7139 23.9732C25.7132 23.7876 25.7873 23.6093 25.92 23.4776C26.0526 23.3458 26.2329 23.2713 26.4211 23.2705C26.6094 23.2697 26.7904 23.3426 26.9242 23.4732L36.8758 33.2052C37.0094 33.3361 37.0848 33.5139 37.0855 33.6995C37.0863 33.8851 37.0123 34.0635 36.8798 34.1954Z" fill="#414141"/>
<path d="M26.4267 25.5685C27.1067 25.5685 27.6581 25.0251 27.6581 24.3548C27.6581 23.6845 27.1067 23.1411 26.4267 23.1411C25.7466 23.1411 25.1953 23.6845 25.1953 24.3548C25.1953 25.0251 25.7466 25.5685 26.4267 25.5685Z" fill="#A7A7A7"/>
<path d="M17.9451 3.30924C16.0549 6.23825 13.171 8.18207 9.61441 9.45905C9.54414 9.51093 9.46418 9.54866 9.3791 9.57008C9.29403 9.59151 9.20551 9.5962 9.1186 9.58391C9.03168 9.57161 8.94807 9.54256 8.87255 9.49842C8.79703 9.45427 8.73106 9.3959 8.67843 9.32663C6.74651 6.78414 7.18274 3.15042 9.73246 1.20767C10.3489 0.738792 11.0537 0.39528 11.8059 0.197074C12.5581 -0.00113193 13.3428 -0.0500843 14.1144 0.0530603C14.886 0.156205 15.6291 0.409391 16.3006 0.79792C16.972 1.18645 17.5585 1.70258 18.026 2.31635L18.0794 2.38668C18.1321 2.45595 18.1704 2.53476 18.1921 2.61861C18.2138 2.70246 18.2186 2.78971 18.2061 2.87538C18.1936 2.96105 18.1642 3.04346 18.1194 3.1179C18.0746 3.19234 18.0154 3.25736 17.9451 3.30924Z" fill="#A7A7A7"/>
<path d="M34.8275 2.31635C35.295 1.70258 35.8815 1.18645 36.553 0.797919C37.2245 0.40939 37.9676 0.156205 38.7391 0.0530607C39.5107 -0.0500839 40.2954 -0.00113295 41.0476 0.197073C41.7998 0.395279 42.5046 0.738791 43.1211 1.20767C45.6708 3.15042 46.107 6.78414 44.1751 9.32662C44.1225 9.3959 44.0565 9.45427 43.981 9.49842C43.9054 9.54256 43.8218 9.57161 43.7349 9.58391C43.648 9.5962 43.5595 9.59151 43.4744 9.57008C43.3893 9.54866 43.3094 9.51093 43.2391 9.45905C39.9374 8.2131 37.2298 6.05698 34.9084 3.30924C34.7665 3.20446 34.6726 3.04839 34.6474 2.87538C34.6222 2.70236 34.6678 2.52657 34.7741 2.38667L34.8275 2.31635Z" fill="#A7A7A7"/>
<path d="M33.9991 41.7452C33.8787 41.8119 33.7901 41.9229 33.7526 42.0539C33.715 42.1849 33.7317 42.3252 33.7989 42.4441L36.8055 47.7399C36.873 47.8587 36.9856 47.9462 37.1186 47.9832C37.2515 48.0202 37.3939 48.0036 37.5145 47.9371C37.6351 47.8706 37.7239 47.7596 37.7614 47.6286C37.799 47.4976 37.7822 47.3572 37.7148 47.2383L34.7082 41.9426C34.6405 41.8239 34.5279 41.7365 34.395 41.6995C34.2621 41.6625 34.1198 41.679 33.9991 41.7452Z" fill="#A7A7A7"/>
<path d="M18.1457 41.943L15.139 47.2388C15.0716 47.3576 15.0548 47.498 15.0924 47.629C15.1299 47.7601 15.2188 47.871 15.3393 47.9375C15.4599 48.004 15.6023 48.0206 15.7352 47.9836C15.8682 47.9466 15.9808 47.8591 16.0483 47.7403L19.0549 42.4445C19.0883 42.3857 19.1097 42.3209 19.1177 42.2539C19.1257 42.187 19.1203 42.1191 19.1017 42.0542C19.0831 41.9893 19.0517 41.9286 19.0094 41.8757C18.967 41.8227 18.9145 41.7785 18.8547 41.7456C18.795 41.7126 18.7293 41.6916 18.6614 41.6837C18.5934 41.6758 18.5246 41.6812 18.4587 41.6995C18.3929 41.7179 18.3313 41.7488 18.2776 41.7906C18.2239 41.8324 18.1791 41.8842 18.1457 41.943H18.1457Z" fill="#A7A7A7"/>
<path d="M37.4145 49.0962C38.3038 49.0962 39.0247 48.3856 39.0247 47.509C39.0247 46.6325 38.3038 45.9219 37.4145 45.9219C36.5251 45.9219 35.8042 46.6325 35.8042 47.509C35.8042 48.3856 36.5251 49.0962 37.4145 49.0962Z" fill="#A7A7A7"/>
<path d="M38.5512 8.4834C39.4405 8.4834 40.1614 7.7728 40.1614 6.89624C40.1614 6.01968 39.4405 5.30908 38.5512 5.30908C37.6619 5.30908 36.9409 6.01968 36.9409 6.89624C36.9409 7.7728 37.6619 8.4834 38.5512 8.4834Z" fill="#A7A7A7"/>
<path d="M26.3319 4.74902C27.2213 4.74902 27.9422 4.03843 27.9422 3.16187C27.9422 2.2853 27.2213 1.57471 26.3319 1.57471C25.4426 1.57471 24.7217 2.2853 24.7217 3.16187C24.7217 4.03843 25.4426 4.74902 26.3319 4.74902Z" fill="#A7A7A7"/>
<path d="M14.6815 8.29688C15.5709 8.29688 16.2918 7.58628 16.2918 6.70972C16.2918 5.83315 15.5709 5.12256 14.6815 5.12256C13.7922 5.12256 13.0713 5.83315 13.0713 6.70972C13.0713 7.58628 13.7922 8.29688 14.6815 8.29688Z" fill="#A7A7A7"/>
<path d="M15.7235 49.0962C16.6129 49.0962 17.3338 48.3856 17.3338 47.509C17.3338 46.6325 16.6129 45.9219 15.7235 45.9219C14.8342 45.9219 14.1133 46.6325 14.1133 47.509C14.1133 48.3856 14.8342 49.0962 15.7235 49.0962Z" fill="#A7A7A7"/>
<path d="M36.1513 33.3029C36.2148 33.4008 36.2993 33.4839 36.3989 33.5462C36.4984 33.6085 36.6106 33.6485 36.7276 33.6634C36.8445 33.6784 36.9634 33.6678 37.0758 33.6326C37.1881 33.5973 37.2913 33.5382 37.378 33.4594L39.9047 34.7939L39.7692 33.3317L37.3906 32.2886C37.2466 32.1539 37.0575 32.0758 36.8591 32.0693C36.6606 32.0628 36.4667 32.1282 36.3139 32.2532C36.1612 32.3782 36.0603 32.5541 36.0303 32.7476C36.0003 32.9411 36.0434 33.1386 36.1513 33.3029H36.1513Z" fill="#FFB7B7"/>
<path d="M37.9927 33.8135L38.9828 32.4663L43.753 34.6889L49.6888 33.5912C49.9822 33.5369 50.2842 33.547 50.5732 33.6207C50.8622 33.6944 51.1312 33.8299 51.3611 34.0176C51.591 34.2052 51.7762 34.4405 51.9035 34.7067C52.0308 34.9728 52.097 35.2634 52.0976 35.5576C52.098 36.0891 51.8845 36.599 51.5039 36.9755C51.1234 37.352 50.6068 37.5643 50.0676 37.5659L43.2651 37.5783L37.9927 33.8135Z" fill="#414141"/>
<path d="M36.4672 57.0815L35.4653 56.6093L36.8415 52.4819L38.32 53.179L36.4672 57.0815Z" fill="#FFB7B7"/>
<path d="M43.1839 56.4161C43.111 56.4611 43.0382 56.5053 42.9646 56.5496C42.8181 56.6381 42.6702 56.7251 42.5223 56.8107C42.448 56.8535 42.3729 56.8963 42.2986 56.9384V56.9405L42.2942 56.9412L42.2927 56.942L42.1794 56.9695L42.0168 56.546L41.9417 56.3509L41.8358 56.0745L41.6415 55.569L40.6187 52.9071L42.2089 52.5205L42.2685 52.7606H42.2692L42.2986 52.8795L42.8542 55.1004L42.9675 55.5545L42.9712 55.5683L43.0396 55.8395L43.0985 56.0745L43.164 56.3371L43.1839 56.4161Z" fill="#FFB7B7"/>
<path d="M52.67 47.0685C52.5692 47.2281 52.4662 47.3869 52.3624 47.5443C52.1696 47.8373 51.9717 48.126 51.7686 48.4103C51.7686 48.4111 51.7678 48.4111 51.7671 48.4118C51.6486 48.52 51.5177 48.6142 51.3771 48.6925C51.3712 48.6968 51.3646 48.6997 51.3587 48.7034C51.2551 48.7598 51.1449 48.8034 51.0305 48.8332C50.9893 48.8433 50.9473 48.8535 50.9061 48.8637C50.7575 48.8985 50.6103 48.9282 50.4639 48.9543C50.2034 49 49.9458 49.0326 49.6898 49.053C49.6692 49.0551 49.6486 49.0566 49.628 49.058C48.5749 49.1342 47.5499 49.0116 46.4799 48.8107C45.9516 48.7121 45.4122 48.5938 44.8537 48.4713C44.6712 48.4306 44.488 48.3908 44.3025 48.3509C44.2886 48.348 44.2738 48.3443 44.2591 48.3414C43.9942 48.2841 43.7249 48.2276 43.4489 48.1717C43.1016 48.1014 42.7432 48.0332 42.3709 47.9686L42.3974 48.4858C42.4194 48.8836 42.5033 49.2757 42.6461 49.6484C42.8051 50.1068 42.9309 50.4695 42.6652 51.2245L42.5372 51.5901C42.6036 51.7716 42.6264 51.9658 42.6038 52.1575C42.5812 52.3491 42.5138 52.533 42.407 52.6947L42.3812 52.7332L43.4489 55.3958L43.5181 55.5684H42.9714L42.2988 55.5691H41.1589L39.5143 52.3168L39.4355 52.1616V52.1536L39.6055 45.9037C39.6077 45.8486 39.6122 45.7927 39.6195 45.7376C39.6495 45.487 39.7298 45.2448 39.8558 45.0251C39.9817 44.8055 40.1508 44.6127 40.3532 44.4582C40.5471 44.3088 40.7692 44.1989 41.0065 44.1349C41.2439 44.0709 41.4918 44.0541 41.7359 44.0853L42.2988 44.1571L43.4489 44.3037L44.2591 44.4074L44.2753 44.4095L46.6646 44.7142L46.8361 44.0251L46.8677 44.0135L47.8737 43.6502L51.3528 42.3932L51.3616 42.3903L51.5905 42.3076L51.6177 42.3511C51.6258 42.3642 51.6339 42.3772 51.6413 42.3903C51.8675 42.79 52.0516 43.2114 52.191 43.648C52.4252 44.3612 52.6181 45.0869 52.7686 45.8217C52.7752 45.8536 52.7811 45.8827 52.7863 45.9088L52.7885 45.9167C52.7907 45.9291 52.7922 45.937 52.7929 45.9392C52.8731 46.2685 52.8172 46.6703 52.67 47.0685Z" fill="#2F2E41"/>
<path d="M52.8168 44.7651C52.8058 44.7187 52.7918 44.6715 52.7771 44.6259C52.6602 44.2798 52.5241 43.9403 52.3694 43.609C52.1957 43.2318 51.9875 42.8278 51.7395 42.3905C51.6196 42.1787 51.4905 41.9584 51.3524 41.7297C51.2833 41.6151 51.2114 41.4983 51.1368 41.3794C51.1339 41.3739 51.1307 41.3686 51.1273 41.3634L51.1059 41.3286L47.6636 41.7827L46.3817 41.9517L46.3052 42.5812L46.2868 42.7372C46.2861 42.7372 46.2861 42.7372 46.2868 42.7379L46.2353 43.1629V43.1636L46.1668 43.725L46.161 43.7243L44.2588 43.4813L42.2984 43.2311L41.2454 43.0969C41.0014 43.0656 40.7535 43.0824 40.5161 43.1464C40.2787 43.2104 40.0566 43.3203 39.8627 43.4697C39.6604 43.6243 39.4914 43.8171 39.3654 44.0367C39.2394 44.2564 39.1591 44.4986 39.1291 44.7492C39.1225 44.7999 39.118 44.8522 39.1158 44.9037L38.1224 47.2239C37.528 48.6115 37.1494 50.0797 36.9995 51.5786L36.271 53.8742L36.3748 53.8837L37.9186 54.0251L38.3262 54.0628L39.224 52.7711C39.3263 52.6238 39.4234 52.4722 39.5139 52.317C39.6629 52.0635 39.7954 51.8009 39.9106 51.5308L41.8525 46.9759C42.0026 47.0013 42.1513 47.0254 42.2984 47.0484C42.9791 47.1572 43.6325 47.2459 44.2588 47.3146C46.2949 47.5387 48.058 47.5561 49.6276 47.3661C50.0684 47.3131 50.4944 47.2435 50.9058 47.1572C51.0566 47.126 51.2055 47.0924 51.3524 47.0564C51.387 47.0484 51.4209 47.0404 51.4547 47.0317C51.7588 46.9544 52.0384 46.8031 52.2679 46.5918C52.4974 46.3804 52.6694 46.1157 52.7682 45.8219C52.8862 45.4814 52.9031 45.1147 52.8168 44.7651Z" fill="#2F2E41"/>
<path d="M36.7877 56.4075L35.7037 55.8954L35.5338 55.8149L35.2622 56.4721L33.3667 56.8833C33.2729 56.9036 33.1882 56.9528 33.1249 57.0239C33.0616 57.095 33.0231 57.1842 33.0148 57.2784C33.0066 57.3726 33.0292 57.467 33.0792 57.5476C33.1293 57.6283 33.2042 57.6911 33.2931 57.7269L35.1452 58.4717L35.7332 57.9502L35.5889 58.6502L36.2865 58.9309L37.0511 56.5323L36.7877 56.4075Z" fill="#2F2E41"/>
<path d="M43.4487 55.3955L43.518 55.5681H43.4487V55.3955Z" fill="#2F2E41"/>
<path d="M43.0712 55.6053L41.9354 55.9931L41.7572 56.0538L42.0333 56.7091L40.9799 58.3159C40.9278 58.3953 40.9028 58.4891 40.9085 58.5835C40.9143 58.6779 40.9505 58.768 41.012 58.8407C41.0734 58.9133 41.1568 58.9647 41.2499 58.9873C41.3431 59.01 41.4412 59.0026 41.5298 58.9664L43.3777 58.2111L43.4232 57.4328L43.8203 58.0302L44.5164 57.7459L43.3474 55.5112L43.0712 55.6053Z" fill="#2F2E41"/>
<path d="M52.5337 45.8161C52.4662 45.8159 52.3998 45.7997 52.3402 45.7687L46.3467 42.6819L46.2775 42.4025L46.147 41.5182L46.1488 41.5099L46.7188 38.9197C46.7083 38.8975 46.6865 38.861 46.6618 38.8198C46.4074 38.3948 45.6329 37.1014 47.1109 35.3205L49.7059 32.3386L51.933 32.2441L51.9583 32.2757C52.5539 33.0124 52.9555 33.8828 53.1275 34.8094C53.2995 35.736 53.2367 36.6901 52.9444 37.5869L52.7125 41.7151L52.9613 42.5488C53.1067 43.0388 53.0826 43.5624 52.8929 44.0374L52.9499 45.3873C52.9521 45.4427 52.943 45.4979 52.9231 45.5497C52.9032 45.6015 52.873 45.6488 52.8341 45.6888C52.7953 45.7288 52.7486 45.7607 52.697 45.7825C52.6454 45.8044 52.5898 45.8158 52.5337 45.816L52.5337 45.8161Z" fill="#414141"/>
<path d="M47.3345 49.2202C47.436 49.161 47.5232 49.0807 47.5898 48.9848C47.6564 48.8889 47.7009 48.7797 47.7201 48.6651C47.7393 48.5504 47.7328 48.4329 47.7009 48.321C47.6691 48.2091 47.6128 48.1054 47.5359 48.0173L48.9769 45.5747L47.4896 45.6573L46.3492 47.9642C46.2076 48.1013 46.1219 48.2848 46.1083 48.4801C46.0948 48.6753 46.1544 48.8687 46.2759 49.0235C46.3973 49.1783 46.5722 49.2838 46.7673 49.3201C46.9624 49.3563 47.1642 49.3208 47.3345 49.2202L47.3345 49.2202Z" fill="#FFB7B7"/>
<path d="M47.916 47.4245L46.5845 46.4023L49.004 41.7807L48.0974 35.8953C48.0526 35.6044 48.0733 35.3073 48.1581 35.0252C48.2429 34.7431 48.3896 34.4828 48.5879 34.2628C48.7862 34.0429 49.0312 33.8687 49.3055 33.7526C49.5798 33.6364 49.8767 33.5812 50.175 33.5909C50.7139 33.609 51.2235 33.8371 51.592 34.225C51.9606 34.613 52.1579 35.1292 52.1407 35.6604L51.9167 42.3617L47.916 47.4245Z" fill="#414141"/>
<path d="M48.2769 31.0995V28.9273C48.2764 28.1553 48.587 27.4147 49.1405 26.8685C49.6939 26.3223 50.4449 26.0151 51.2281 26.0146C52.0113 26.0142 52.7626 26.3203 53.3168 26.8659C53.871 27.4114 54.1826 28.1516 54.1831 28.9235V28.9273C54.7036 29.9963 54.3779 30.5046 54.1831 31.0995C54.1829 31.2031 54.1411 31.3024 54.0667 31.3757C53.9924 31.4489 53.8917 31.4902 53.7866 31.4903H48.6736C48.5684 31.4902 48.4676 31.449 48.3933 31.3758C48.3189 31.3025 48.277 31.2032 48.2769 31.0995Z" fill="#2F2E41"/>
<path d="M50.2618 31.3488C51.4826 31.3488 52.4723 30.3733 52.4723 29.17C52.4723 27.9667 51.4826 26.9912 50.2618 26.9912C49.0409 26.9912 48.0513 27.9667 48.0513 29.17C48.0513 30.3733 49.0409 31.3488 50.2618 31.3488Z" fill="#FFB7B7"/>
<path d="M52.5753 29.7414C52.5552 29.7383 52.5352 29.7342 52.5152 29.731C52.1704 29.6708 51.8256 29.6115 51.4818 29.5502L51.4502 28.7821L51.0337 29.4702C50.0836 29.7809 49.1947 29.6053 48.3585 29.2176C48.0827 29.0886 47.8151 28.9431 47.5571 28.7821C47.6274 28.3574 47.7931 27.9534 48.0421 27.5999C48.2911 27.2463 48.6172 26.9521 48.9965 26.7388C49.0281 26.7211 49.0587 26.7056 49.0903 26.69C49.0905 26.69 49.0906 26.6899 49.0907 26.6899C49.0908 26.6898 49.091 26.6898 49.0911 26.6897C49.0912 26.6896 49.0912 26.6894 49.0913 26.6893C49.0913 26.6892 49.0914 26.6891 49.0914 26.6889C49.1451 26.664 49.2 26.6401 49.2548 26.6183C49.6841 26.4529 50.1521 26.411 50.6046 26.4975C51.0571 26.584 51.4753 26.7952 51.8108 27.1067C52.4856 27.7418 52.7893 28.7905 52.5753 29.7414Z" fill="#2F2E41"/>
</g>
<defs>
<clipPath id="clip0_459_944">
<rect width="64" height="59" fill="white"/>
</clipPath>
</defs>
</svg>
